<svg xmlns="http://www.w3.org/2000/svg" viewBox="0 0 240 240"><path fill="#2CA5E0" d="M120 240C53.7 240 0 186.3 0 120S53.7 0 120 0s120 53.7 120 120-53.7 120-120 120zm57.6-174.5c-2.4-1.2-165.6 63.8-168.4 66.2-3.6 3-1.6 8.2 3.8 9.8 6.4 1.9 21.6 6.8 21.6 6.8s10.6 31.6 12.6 36.2c0 0 3.2 4.4 7.2.4 3.4-3.4 8-7.8 8-7.8l27.8 20.2c0 0 8.2 6 14.2 1.2 5.2-4.2 26.6-125.4 26.6-125.4s1.2-5.8-5.8-2.6z"/><path fill="#FFF" d="M96.8 152.2l-3.8 38.6c0 0-.8 6 5.2 0 4.2-4.2 11.2-11.2 11.2-11.2l-12.6-27.4zm10.8-7.6l64.6-47.8c0 0 4.6-3.2-1-1.2-5.8 2-145.4 90.6-145.4 90.6s-6.6 2.4-1.2 4.2c6.4 1.9 21.6 6.8 21.6 6.8l12.6 37.8 12.4-35.8c0 0 36.4-32.8 36.4-32.8z"/></svg>
